<svg id="visual" viewBox="0 0 900 600" width="900" height="600" xmlns="http://www.w3.org/2000/svg" xmlns:xlink="http://www.w3.org/1999/xlink" version="1.1"><path d="M0 396L21.5 397.7C43 399.3 86 402.7 128.8 423C171.7 443.3 214.3 480.7 257.2 494C300 507.3 343 496.7 385.8 482.5C428.7 468.3 471.3 450.7 514.2 447.7C557 444.7 600 456.3 642.8 466.7C685.7 477 728.3 486 771.2 479.5C814 473 857 451 878.5 440L900 429L900 601L878.5 601C857 601 814 601 771.2 601C728.3 601 685.7 601 642.8 601C600 601 557 601 514.2 601C471.3 601 428.7 601 385.8 601C343 601 300 601 257.2 601C214.3 601 171.7 601 128.8 601C86 601 43 601 21.5 601L0 601Z" fill="#2196F3" stroke-linecap="round" stroke-linejoin="miter"></path></svg>